<svg width="30" height="30" viewBox="0 0 30 30" fill="none" xmlns="http://www.w3.org/2000/svg">
<path d="M5 11.6667H25V16.6667L17.9167 23.75H8.33333C6.49583 23.75 5 22.2542 5 20.4167V11.6667ZM11.0417 21.0417C11.6171 21.0417 12.0833 20.5754 12.0833 20C12.0833 19.4246 11.6171 18.9583 11.0417 18.9583C10.4662 18.9583 10 19.4246 10 20C10 20.5754 10.4662 21.0417 11.0417 21.0417ZM11.0417 18.3333C11.6171 18.3333 12.0833 17.8671 12.0833 17.2917C12.0833 16.7162 11.6171 16.25 11.0417 16.25C10.4662 16.25 10 16.7162 10 17.2917C10 17.8671 10.4662 18.3333 11.0417 18.3333ZM11.0417 15.625C11.6171 15.625 12.0833 15.1587 12.0833 14.5833C12.0833 14.0079 11.6171 13.5417 11.0417 13.5417C10.4662 13.5417 10 14.0079 10 14.5833C10 15.1587 10.4662 15.625 11.0417 15.625ZM18.75 20.8333C19.21 20.8333 19.5833 20.46 19.5833 20C19.5833 19.54 19.21 19.1667 18.75 19.1667H14.1667C13.7067 19.1667 13.3333 19.54 13.3333 20C13.3333 20.46 13.7067 20.8333 14.1667 20.8333H18.75ZM18.3333 18.125C18.7933 18.125 19.1667 17.7517 19.1667 17.2917C19.1667 16.8317 18.7933 16.4583 18.3333 16.4583H14.1667C13.7067 16.4583 13.3333 16.8317 13.3333 17.2917C13.3333 17.7517 13.7067 18.125 14.1667 18.125H18.3333ZM18.3333 15.4167C18.7933 15.4167 19.1667 15.0433 19.1667 14.5833C19.1667 14.1233 18.7933 13.75 18.3333 13.75H14.1667C13.7067 13.75 13.3333 14.1233 13.3333 14.5833C13.3333 15.0433 13.7067 15.4167 14.1667 15.4167H18.3333ZM25 10H5V9.58333C5 7.74542 6.49542 6.25 8.33333 6.25H21.6667C23.5046 6.25 25 7.74542 25 9.58333V10ZM25.7112 18.1371L27.225 19.6567L27.6862 19.1838C27.9167 18.9412 27.935 18.6075 27.7046 18.3771L26.9575 17.6242C26.7512 17.4179 26.4054 17.4483 26.1812 17.6725L25.7112 18.1371ZM19.2562 26.3213C19.1167 26.3758 18.9592 26.2183 19.0196 26.0788L19.2712 24.5833L25.2658 18.5829L26.7892 20.1L20.7942 26.0942L19.2562 26.3213Z" fill="#0D0D0D"/>
</svg>
