<svg width="32" height="32" viewBox="0 0 32 32" fill="none" xmlns="http://www.w3.org/2000/svg">
<path d="M8.80078 10.3998C8.80078 9.5162 9.51718 8.7998 10.4008 8.7998H21.6008C22.4844 8.7998 23.2008 9.5162 23.2008 10.3998V21.5998C23.2008 22.4834 22.4844 23.1998 21.6008 23.1998H10.4008C9.51718 23.1998 8.80078 22.4834 8.80078 21.5998V10.3998Z" fill="#B388FF"/>
<path d="M10 10V22H22V10H10Z" fill="#170B40"/>
<path d="M14.8748 17.5857H13.0528L12.7064 18.7241H11.6016L13.4792 13.1997H14.442L16.3296 18.7237H15.2248L14.8748 17.5857ZM13.3336 16.6637H14.5944L13.9608 14.5957L13.3336 16.6637ZM18.46 18.7997C18.1688 18.7997 17.9084 18.7477 17.6788 18.6441C17.4488 18.5405 17.254 18.3985 17.0932 18.2189C16.9324 18.0393 16.8104 17.8289 16.726 17.5873C16.642 17.3457 16.5996 17.0873 16.5996 16.8113V16.6633C16.5996 16.3521 16.6408 16.0669 16.7228 15.8077C16.8044 15.5485 16.9212 15.3253 17.0728 15.1381C17.2236 14.9509 17.4076 14.8049 17.6232 14.6997C17.8392 14.5949 18.0812 14.5421 18.3488 14.5421C18.6188 14.5421 18.8568 14.5909 19.0624 14.6881C19.268 14.7853 19.4404 14.9221 19.5804 15.0981C19.72 15.2737 19.8252 15.4857 19.8956 15.7337C19.966 15.9817 20.0016 16.2577 20.0016 16.5613V17.0281H17.6152C17.6312 17.1621 17.6644 17.2837 17.714 17.3921C17.7636 17.5009 17.8272 17.5937 17.9044 17.6709C17.9816 17.7481 18.0724 17.8081 18.176 17.8513C18.28 17.8945 18.3968 17.9157 18.526 17.9157C18.7084 17.9157 18.8772 17.8785 19.0316 17.8037C19.1864 17.7293 19.3192 17.6133 19.43 17.4565L19.922 18.0597C19.862 18.1533 19.7868 18.2445 19.6968 18.3329C19.6068 18.4213 19.5004 18.5005 19.378 18.5701C19.2556 18.6397 19.118 18.6953 18.964 18.7369C18.8104 18.7789 18.6428 18.7997 18.46 18.7997ZM18.346 15.4305C18.2372 15.4305 18.1424 15.4513 18.06 15.4933C17.978 15.5349 17.9076 15.5933 17.8488 15.6677C17.79 15.7421 17.742 15.8313 17.7052 15.9353C17.6684 16.0389 17.642 16.1541 17.626 16.2805H19.0184V16.1933C19.016 16.0845 19.0016 15.9833 18.9748 15.8897C18.9484 15.7961 18.908 15.7153 18.8536 15.6469C18.7992 15.5785 18.73 15.5257 18.646 15.4877C18.5608 15.4497 18.4612 15.4305 18.346 15.4305Z" fill="#B388FF"/>
</svg>
