<svg width="32" height="32" viewBox="0 0 32 32" fill="none" xmlns="http://www.w3.org/2000/svg">
<path d="M8.80078 10.3998C8.80078 9.5162 9.51718 8.7998 10.4008 8.7998H21.6008C22.4844 8.7998 23.2008 9.5162 23.2008 10.3998V21.5998C23.2008 22.4834 22.4844 23.1998 21.6008 23.1998H10.4008C9.51718 23.1998 8.80078 22.4834 8.80078 21.5998V10.3998Z" fill="#FF5722"/>
<path d="M10 10V22H22V10H10ZM15.8764 18.8L15.5716 17.636H14.0052L13.7008 18.8H12.486L14.2632 13.1124H15.314L17.1032 18.8H15.8764ZM18.74 18.8H17.6308V14.5736H18.74V18.8ZM18.6208 13.9016C18.5124 14.0136 18.3664 14.0696 18.1812 14.0696C17.996 14.0696 17.85 14.0136 17.7416 13.9016C17.6332 13.7896 17.5796 13.6488 17.5796 13.4796C17.5796 13.3076 17.6344 13.1672 17.7436 13.0576C17.8528 12.948 17.9992 12.8936 18.1812 12.8936C18.3632 12.8936 18.5092 12.9484 18.6188 13.0576C18.7284 13.1668 18.7828 13.3076 18.7828 13.4796C18.7828 13.6488 18.7288 13.7896 18.6208 13.9016Z" fill="#1C0802"/>
<path d="M14.2578 16.6786H15.3202L14.789 14.6514L14.2578 16.6786Z" fill="#1C0802"/>
</svg>
