<svg width="30" height="30" viewBox="0 0 30 30" fill="none" xmlns="http://www.w3.org/2000/svg">
<path d="M15 4.1665C14.0796 4.1665 13.3333 4.91275 13.3333 5.83317V6.24984H7.91667C6.30875 6.24984 5 7.55859 5 9.1665V18.7498C5 20.3578 6.30875 21.6665 7.91667 21.6665H9.55648L8.57096 23.3096C8.09721 24.0983 8.35267 25.1218 9.14225 25.5955C9.41059 25.7564 9.70671 25.834 9.99837 25.834C10.5646 25.834 11.117 25.5451 11.429 25.0243L13.444 21.6665H16.556L18.571 25.0243C18.8835 25.5451 19.4354 25.834 20.0016 25.834C20.2933 25.834 20.589 25.7564 20.8569 25.5955C21.6461 25.1222 21.9028 24.0987 21.429 23.3096L20.4435 21.6665H22.0833C23.6912 21.6665 25 20.3578 25 18.7498V9.1665C25 7.55859 23.6912 6.24984 22.0833 6.24984H16.6667V5.83317C16.6667 4.91275 15.9204 4.1665 15 4.1665ZM20.0684 10.4189C20.2283 10.4319 20.3865 10.4911 20.5208 10.5988C20.8804 10.8863 20.9385 11.4107 20.651 11.7699L17.3177 15.9365C17.041 16.2819 16.5425 16.3519 16.1825 16.0952L13.9437 14.4953L12.3454 16.734C12.1841 16.9595 11.9279 17.0832 11.6659 17.0832C11.54 17.0832 11.4131 17.0544 11.2939 16.9953L9.62728 16.1619C9.2152 15.9557 9.04872 15.4554 9.25456 15.0438C9.46081 14.6321 9.96022 14.4648 10.3727 14.6711L11.403 15.1862L13.0721 12.849C13.34 12.4735 13.8605 12.387 14.2342 12.6545L16.5088 14.2796L19.3498 10.729C19.5297 10.5043 19.8018 10.3973 20.0684 10.4189Z" fill="#0D0D0D"/>
</svg>
