<svg width="30" height="30" viewBox="0 0 30 30" fill="none" xmlns="http://www.w3.org/2000/svg">
<path d="M23.3336 15.0264C26.0661 15.0264 28.0773 16.6968 28.0773 18.3806C28.0773 19.1823 27.5448 19.5831 26.4803 19.5831H20.1869C19.1223 19.5831 18.5898 19.1823 18.5898 18.3806C18.5898 16.7185 20.5678 15.0264 23.3336 15.0264ZM15.0003 19.6043C17.7328 19.6043 19.744 21.2748 19.744 22.9585C19.744 23.7602 19.2115 24.161 18.1469 24.161H11.8536C10.789 24.161 10.2565 23.7602 10.2565 22.9585C10.2565 21.2964 12.2344 19.6043 15.0003 19.6043ZM7.08359 15.0264C9.81609 15.0264 11.8273 16.6968 11.8273 18.3806C11.8273 19.1823 11.2948 19.5831 10.2303 19.5831H3.93693C2.87234 19.5831 2.33984 19.1823 2.33984 18.3806C2.33984 16.7185 4.31776 15.0264 7.08359 15.0264ZM23.3336 14.526C22.0736 14.526 20.9161 13.491 20.9015 11.9068C20.9015 10.7752 21.7457 9.32101 23.3336 9.32101C24.9257 9.32101 25.7657 10.8064 25.7657 11.9068C25.7657 13.2402 24.8136 14.526 23.3336 14.526ZM15.0003 19.1039C13.7403 19.1039 12.5828 18.0689 12.5682 16.4848C12.5682 15.3531 13.4123 13.8989 15.0003 13.8989C16.5923 13.8989 17.4323 15.3843 17.4323 16.4848C17.4323 17.8181 16.4803 19.1039 15.0003 19.1039ZM7.08359 14.526C5.82359 14.526 4.66609 13.491 4.65151 11.9068C4.65151 10.7752 5.49568 9.32101 7.08359 9.32101C8.67568 9.32101 9.51568 10.8064 9.51568 11.9068C9.51568 13.2402 8.56359 14.526 7.08359 14.526ZM15.0003 11.6039C13.7403 11.6039 12.5828 10.5689 12.5682 8.98476C12.5682 7.85309 13.4123 6.39893 15.0003 6.39893C16.5923 6.39893 17.4323 7.88434 17.4323 8.98476C17.4323 10.3181 16.4803 11.6039 15.0003 11.6039Z" fill="#0D0D0D"/>
</svg>
