<svg width="30" height="30" viewBox="0 0 30 30" fill="none" xmlns="http://www.w3.org/2000/svg">
<path d="M25.8346 17.0833C25.8346 18.4879 25.5688 19.855 25.0451 21.1479C24.4051 22.7283 22.8892 23.75 21.183 23.75H8.81964C7.11339 23.75 5.59755 22.7283 4.95672 21.1471C4.4338 19.8546 4.16797 18.4875 4.16797 17.0833C4.16797 11.1096 9.02755 6.25 15.0013 6.25C20.9751 6.25 25.8346 11.1096 25.8346 17.0833ZM7.75672 19.0246C7.90547 19.5804 8.47672 19.91 9.03255 19.7612C9.58839 19.6125 9.91797 19.0413 9.76922 18.4854C9.62047 17.9296 9.04922 17.6 8.49339 17.7487C7.93755 17.8975 7.60797 18.4688 7.75672 19.0246ZM7.9538 14.5183C7.75714 15.0588 8.03589 15.6567 8.5763 15.8533C9.11672 16.05 9.71464 15.7712 9.9113 15.2308C10.108 14.6904 9.82922 14.0925 9.2888 13.8958C8.74797 13.6987 8.15047 13.9775 7.9538 14.5183ZM10.6996 10.9396C10.2284 11.2696 10.1138 11.9192 10.4438 12.3904C10.7738 12.8617 11.4234 12.9762 11.8946 12.6462C12.3659 12.3162 12.4805 11.6667 12.1505 11.1954C11.8205 10.7242 11.1709 10.6096 10.6996 10.9396ZM15.0013 9.58333C14.4259 9.58333 13.9596 10.0496 13.9596 10.625C13.9596 11.2004 14.4259 11.6667 15.0013 11.6667C15.5767 11.6667 16.043 11.2004 16.043 10.625C16.043 10.0496 15.5767 9.58333 15.0013 9.58333ZM19.0642 11.2808C18.7701 11.0746 18.3692 11.115 18.1217 11.3754L13.7446 15.9996C13.4926 16.2917 13.3346 16.6675 13.3346 17.0833C13.3346 18.0037 14.0809 18.75 15.0013 18.75C15.6259 18.75 16.1638 18.4021 16.4492 17.8937L19.2976 12.1992C19.4576 11.8775 19.3584 11.4871 19.0642 11.2808ZM22.0488 14.5183C21.8521 13.9779 21.2542 13.6992 20.7138 13.8958C20.1734 14.0925 19.8946 14.6904 20.0913 15.2308C20.288 15.7712 20.8859 16.05 21.4263 15.8533C21.9671 15.6567 22.2459 15.0588 22.0488 14.5183ZM22.2459 19.0246C22.3946 18.4688 22.0651 17.8975 21.5092 17.7487C20.9534 17.6 20.3821 17.9296 20.2334 18.4854C20.0846 19.0413 20.4142 19.6125 20.9701 19.7612C21.5259 19.91 22.0967 19.58 22.2459 19.0246Z" fill="#0D0D0D"/>
</svg>
