<svg width="100" height="100" viewBox="0 0 100 100" fill="none" xmlns="http://www.w3.org/2000/svg">
<path d="M86.8413 75.3297C87.81 77.2672 87.7069 79.5688 86.5678 81.4109C85.4288 83.2531 83.4163 84.375 81.2506 84.375H59.3756C57.21 84.375 55.1975 83.2531 54.0585 81.4109C52.9194 79.5688 52.8163 77.2672 53.785 75.3297C55.5881 71.725 61.0975 65.625 70.3131 65.625C79.5288 65.625 85.0381 71.725 86.8413 75.3297ZM70.3131 60.9375C65.9991 60.9375 62.5006 57.2641 62.5006 52.7344C62.5006 48.2047 65.9991 44.5312 70.3131 44.5312C74.6272 44.5312 78.1256 48.2047 78.1256 52.7344C78.1256 57.2641 74.6272 60.9375 70.3131 60.9375ZM46.2163 75.3297C47.185 77.2672 47.0819 79.5688 45.9428 81.4109C44.8038 83.2531 42.7913 84.375 40.6256 84.375H18.7506C16.585 84.375 14.5725 83.2531 13.4335 81.4109C12.2944 79.5688 12.1913 77.2672 13.16 75.3297C14.9631 71.725 20.4725 65.625 29.6881 65.625C38.9038 65.625 44.4131 71.725 46.2163 75.3297ZM29.6881 60.9375C25.3741 60.9375 21.8756 57.2641 21.8756 52.7344C21.8756 48.2047 25.3741 44.5312 29.6881 44.5312C34.0022 44.5312 37.5006 48.2047 37.5006 52.7344C37.5006 57.2641 34.0022 60.9375 29.6881 60.9375ZM83.6069 35.0453C84.4584 36.4641 84.635 38.2484 83.8835 39.7234C83.035 41.3891 81.3866 42.3141 79.6866 42.3141C79.1022 42.3141 78.5116 42.2047 77.9475 41.9781L70.9725 39.1891H55.7491C57.0428 37.3922 57.8131 35.1953 57.8131 32.8125V21.875C57.8131 19.55 57.0819 17.3969 55.8444 15.625H71.8756C76.1897 15.625 79.6881 19.1234 79.6881 23.4375V28.5156L83.6069 35.0453ZM45.3131 15.625C49.621 15.625 53.1256 19.1297 53.1256 23.4375V31.25C53.1256 35.5578 49.621 39.0625 45.3131 39.0625H29.0288L22.0538 41.8516C21.4881 42.0781 20.8991 42.1875 20.3147 42.1875C18.9694 42.1875 17.6538 41.6078 16.7444 40.5391C15.4397 39.0078 15.2585 36.8141 16.2928 35.0875L20.3131 28.3891V23.4375C20.3131 19.1297 23.8178 15.625 28.1256 15.625H45.3131Z" fill="#0D0D0D"/>
</svg>
