<svg width="30" height="30" viewBox="0 0 30 30" fill="none" xmlns="http://www.w3.org/2000/svg">
<path d="M19.5846 4.5835C21.6555 4.5835 23.3346 6.26266 23.3346 8.3335V21.6668C23.3346 23.7377 21.6555 25.4168 19.5846 25.4168H10.418C8.34714 25.4168 6.66797 23.7377 6.66797 21.6668V8.3335C6.66797 6.26266 8.34714 4.5835 10.418 4.5835H19.5846ZM12.0846 8.75016C11.6246 8.75016 11.2513 9.1235 11.2513 9.5835C11.2513 10.0435 11.6246 10.4168 12.0846 10.4168H17.918C18.378 10.4168 18.7513 10.0435 18.7513 9.5835C18.7513 9.1235 18.378 8.75016 17.918 8.75016H12.0846ZM11.668 21.2502C12.128 21.2502 12.5013 20.8772 12.5013 20.4168C12.5013 19.9564 12.128 19.5835 11.668 19.5835C11.208 19.5835 10.8346 19.9564 10.8346 20.4168C10.8346 20.8772 11.208 21.2502 11.668 21.2502ZM11.668 17.9168C12.128 17.9168 12.5013 17.5439 12.5013 17.0835C12.5013 16.6231 12.128 16.2502 11.668 16.2502C11.208 16.2502 10.8346 16.6231 10.8346 17.0835C10.8346 17.5439 11.208 17.9168 11.668 17.9168ZM11.668 14.5835C12.128 14.5835 12.5013 14.2106 12.5013 13.7502C12.5013 13.2897 12.128 12.9168 11.668 12.9168C11.208 12.9168 10.8346 13.2897 10.8346 13.7502C10.8346 14.2106 11.208 14.5835 11.668 14.5835ZM18.3346 21.2502C18.7946 21.2502 19.168 20.8768 19.168 20.4168C19.168 19.9568 18.7946 19.5835 18.3346 19.5835H15.0013C14.5413 19.5835 14.168 19.9568 14.168 20.4168C14.168 20.8768 14.5413 21.2502 15.0013 21.2502H18.3346ZM18.3346 17.9168C18.7946 17.9168 19.168 17.5435 19.168 17.0835C19.168 16.6235 18.7946 16.2502 18.3346 16.2502H15.0013C14.5413 16.2502 14.168 16.6235 14.168 17.0835C14.168 17.5435 14.5413 17.9168 15.0013 17.9168H18.3346ZM18.3346 14.5835C18.7946 14.5835 19.168 14.2102 19.168 13.7502C19.168 13.2902 18.7946 12.9168 18.3346 12.9168H15.0013C14.5413 12.9168 14.168 13.2902 14.168 13.7502C14.168 14.2102 14.5413 14.5835 15.0013 14.5835H18.3346Z" fill="#0D0D0D"/>
</svg>
