<svg width="30" height="30" viewBox="0 0 30 30" fill="none" xmlns="http://www.w3.org/2000/svg">
<path d="M22.082 23.75H7.91536C6.07745 23.75 4.58203 22.2546 4.58203 20.4167V9.58333C4.58203 7.74542 6.07745 6.25 7.91536 6.25H22.082C23.9199 6.25 25.4154 7.74542 25.4154 9.58333V20.4167C25.4154 22.2546 23.9199 23.75 22.082 23.75ZM14.3737 16.6667C14.1408 16.6667 13.9387 16.795 13.832 16.9846C13.8145 17.0158 13.7991 17.0487 13.787 17.0833H9.9987C9.54036 17.0833 9.16536 17.4583 9.16536 17.9167C9.16536 18.375 9.54036 18.75 9.9987 18.75H13.787C13.7991 18.7842 13.8141 18.8171 13.832 18.8483C13.9387 19.0379 14.1404 19.1667 14.3737 19.1667C14.7187 19.1667 14.9987 18.8867 14.9987 18.5417V17.2917C14.9987 16.9467 14.7187 16.6667 14.3737 16.6667ZM19.9987 17.0833H16.2487V18.75H19.9987C20.457 18.75 20.832 18.375 20.832 17.9167C20.832 17.4583 20.457 17.0833 19.9987 17.0833ZM11.457 10.8333C10.1999 10.8333 9.16536 11.8679 9.16536 13.125C9.16536 14.3821 10.1999 15.4167 11.457 15.4167C12.7141 15.4167 13.7487 14.3821 13.7487 13.125H11.457V10.8333ZM20.832 14.375C20.832 13.915 20.4587 13.5417 19.9987 13.5417H15.832C15.372 13.5417 14.9987 13.915 14.9987 14.375C14.9987 14.835 15.372 15.2083 15.832 15.2083H19.9987C20.4587 15.2083 20.832 14.835 20.832 14.375ZM20.832 11.875C20.832 11.415 20.4587 11.0417 19.9987 11.0417H15.832C15.372 11.0417 14.9987 11.415 14.9987 11.875C14.9987 12.335 15.372 12.7083 15.832 12.7083H19.9987C20.4587 12.7083 20.832 12.335 20.832 11.875Z" fill="#0D0D0D"/>
</svg>
