<svg width="30" height="30" viewBox="0 0 30 30" fill="none" xmlns="http://www.w3.org/2000/svg">
<path d="M22.4987 7.08317C24.107 7.08317 25.4154 8.3915 25.4154 9.99984V19.9998C25.4154 21.6082 24.107 22.9165 22.4987 22.9165H20.832V22.4998C20.832 21.8082 20.2737 21.2498 19.582 21.2498C18.8904 21.2498 18.332 21.8082 18.332 22.4998V22.9165H11.6654V22.4998C11.6654 21.8082 11.107 21.2498 10.4154 21.2498C9.7237 21.2498 9.16536 21.8082 9.16536 22.4998V22.9165H7.4987C5.89036 22.9165 4.58203 21.6082 4.58203 19.9998V8.33317C4.58203 6.72484 5.89036 5.4165 7.4987 5.4165H13.332C14.4945 5.4165 15.4987 6.09984 15.9654 7.08317H22.4987ZM14.132 17.4998C14.2391 17.4998 14.582 17.4594 14.582 17.1248C14.582 16.5036 14.0574 15.9636 13.7579 15.7465C13.112 15.2786 12.4883 15.1457 11.8737 15.1457C11.2591 15.1457 10.6358 15.2782 9.98953 15.7465C9.68995 15.9636 9.16536 16.5036 9.16536 17.1248C9.16536 17.4594 9.50828 17.4998 9.61536 17.4998C9.72245 17.4998 14.0249 17.4998 14.132 17.4998ZM11.8799 14.5623C12.5783 14.5623 13.1445 13.9373 13.1445 13.1665C13.1445 12.3957 12.5783 11.7707 11.8799 11.7707C11.1816 11.7707 10.6154 12.3957 10.6154 13.1665C10.6154 13.9373 11.1816 14.5623 11.8799 14.5623ZM19.582 17.0832C20.042 17.0832 20.4154 16.7098 20.4154 16.2498C20.4154 15.7898 20.042 15.4165 19.582 15.4165H17.082C16.622 15.4165 16.2487 15.7898 16.2487 16.2498C16.2487 16.7098 16.622 17.0832 17.082 17.0832H19.582ZM19.582 14.1665C20.042 14.1665 20.4154 13.7932 20.4154 13.3332C20.4154 12.8732 20.042 12.4998 19.582 12.4998H17.082C16.622 12.4998 16.2487 12.8732 16.2487 13.3332C16.2487 13.7932 16.622 14.1665 17.082 14.1665H19.582Z" fill="#0D0D0D"/>
</svg>
