<svg width="30" height="30" viewBox="0 0 30 30" fill="none" xmlns="http://www.w3.org/2000/svg">
<path d="M10.418 5C8.58005 5 7.08464 6.49542 7.08464 8.33333C7.08464 10.1712 8.58005 11.6667 10.418 11.6667C10.7038 11.6667 10.9799 11.6272 11.2448 11.5592L12.105 12.7629C11.7239 13.2969 11.4547 13.914 11.3311 14.5833H10.5897C10.094 13.3633 8.89716 12.5 7.5013 12.5C5.66339 12.5 4.16797 13.9954 4.16797 15.8333C4.16797 17.6712 5.66339 19.1667 7.5013 19.1667C8.89716 19.1667 10.094 18.3034 10.5897 17.0833H11.5695C11.8892 17.8983 12.435 18.5982 13.1304 19.1089L12.9269 19.5841C12.9239 19.5841 12.921 19.5833 12.918 19.5833C11.0801 19.5833 9.58464 21.0787 9.58464 22.9167C9.58464 24.7546 11.0801 26.25 12.918 26.25C14.7559 26.25 16.2513 24.7546 16.2513 22.9167C16.2513 21.9818 15.8635 21.1365 15.2414 20.5306L15.4766 19.9821C15.5951 19.9913 15.7138 20 15.8346 20C16.8786 20 17.839 19.6452 18.6105 19.0552L19.2965 19.5076C19.2143 19.797 19.168 20.1013 19.168 20.4167C19.168 22.2546 20.6634 23.75 22.5013 23.75C24.3392 23.75 25.8346 22.2546 25.8346 20.4167C25.8346 18.5787 24.3392 17.0833 22.5013 17.0833C21.8963 17.0833 21.33 17.2479 20.8403 17.5309L20.112 17.05C20.3068 16.5418 20.418 15.9925 20.418 15.4167C20.418 14.4737 20.131 13.5965 19.6408 12.867L20.4367 11.9792C20.6979 12.0452 20.9699 12.0833 21.2513 12.0833C23.0892 12.0833 24.5846 10.5879 24.5846 8.75C24.5846 6.91208 23.0892 5.41667 21.2513 5.41667C19.4134 5.41667 17.918 6.91208 17.918 8.75C17.918 9.38819 18.102 9.98258 18.4144 10.4899L17.7324 11.25C17.1532 10.985 16.512 10.8333 15.8346 10.8333C15.204 10.8333 14.603 10.9616 14.0557 11.193L13.2557 10.0724C13.5677 9.5653 13.7513 8.97113 13.7513 8.33333C13.7513 6.49542 12.2559 5 10.418 5Z" fill="#0D0D0D"/>
</svg>
