<svg width="30" height="30" viewBox="0 0 30 30" fill="none" xmlns="http://www.w3.org/2000/svg">
<path d="M24.844 4.21875C23.3941 4.21875 15.9243 4.45738 11.2026 9.17816C10.7472 9.63374 10.3616 10.1178 10.0253 10.6119C9.18695 10.6936 7.55024 10.9969 6.23589 12.1298C4.41386 13.7001 4.22831 16.2376 4.22081 16.3449C4.20253 16.6201 4.30635 16.8888 4.50463 17.0801C4.68041 17.2498 4.91461 17.3438 5.15648 17.3438C5.18742 17.3438 5.21893 17.342 5.24987 17.3392L7.97265 17.0673C7.96736 17.2299 7.9685 17.3356 7.96898 17.3611C7.97367 17.604 8.07208 17.835 8.24364 18.0066L11.9936 21.7566C12.1652 21.9282 12.3963 22.0261 12.6391 22.0303C12.6489 22.0308 12.67 22.0312 12.7004 22.0312C12.7448 22.0312 12.8492 22.0273 12.9339 22.0248L12.6611 24.7504C12.6339 25.0246 12.7289 25.2973 12.9202 25.4956C13.0969 25.6789 13.3404 25.7812 13.594 25.7812C13.6141 25.7812 13.6347 25.7808 13.6553 25.7794C13.7622 25.7724 16.2997 25.5868 17.8695 23.7643C19.0009 22.4517 19.3048 20.8135 19.3874 19.975C19.8817 19.6385 20.3654 19.2534 20.8212 18.7976C25.5424 14.0773 25.7815 6.60609 25.7815 5.15625C25.7815 4.63875 25.3615 4.21875 24.844 4.21875ZM18.7502 9.375C19.7857 9.375 20.6252 10.2145 20.6252 11.25C20.6252 12.2855 19.7857 13.125 18.7502 13.125C17.7148 13.125 16.8752 12.2855 16.8752 11.25C16.8752 10.2145 17.7148 9.375 18.7502 9.375ZM7.30614 19.0247C6.4938 19.837 5.62523 21.4228 5.62523 23.4375C5.62523 23.955 6.04523 24.375 6.56273 24.375C8.57648 24.375 10.1628 23.5069 10.9756 22.6941L9.64989 21.3684C9.55755 21.4612 8.89487 21.704 8.29674 21.7035C8.29674 21.1035 8.53948 20.4427 8.63183 20.3503L7.30614 19.0247Z" fill="#0D0D0D"/>
</svg>
