<svg width="30" height="30" viewBox="0 0 30 30" fill="none" xmlns="http://www.w3.org/2000/svg">
<path d="M19.3213 4.69574C18.9285 4.65121 18.6481 5.06615 18.8351 5.41443L19.4916 6.63666L6.12396 13.7018C5.66599 13.9437 5.49116 14.5109 5.73303 14.9689C5.90178 15.2872 6.22685 15.4688 6.56342 15.4688C6.7106 15.4688 6.86135 15.4339 7.00104 15.3598L20.3787 8.28919L21.0535 9.54621C21.2405 9.89449 21.7423 9.89 21.9223 9.53797L23.7991 5.86762C23.9552 5.56246 23.7586 5.19652 23.4183 5.15808L19.3213 4.69574ZM20.1562 13.125C19.6388 13.125 19.2188 13.545 19.2188 14.0625V24.375C19.2188 24.8925 19.6388 25.3125 20.1562 25.3125H23.9062C24.4237 25.3125 24.8438 24.8925 24.8438 24.375V14.0625C24.8438 13.545 24.4237 13.125 23.9062 13.125H20.1562ZM13.125 15.4688C12.6075 15.4688 12.1875 15.8888 12.1875 16.4063V24.375C12.1875 24.8925 12.6075 25.3125 13.125 25.3125H16.875C17.3925 25.3125 17.8125 24.8925 17.8125 24.375V16.4063C17.8125 15.8888 17.3925 15.4688 16.875 15.4688H13.125ZM6.09375 18.2813C5.57625 18.2813 5.15625 18.7013 5.15625 19.2188V24.375C5.15625 24.8925 5.57625 25.3125 6.09375 25.3125H9.84375C10.3612 25.3125 10.7812 24.8925 10.7812 24.375V19.2188C10.7812 18.7013 10.3612 18.2813 9.84375 18.2813H6.09375Z" fill="#0D0D0D"/>
</svg>
