<svg width="50" height="50" viewBox="0 0 50 50" fill="none" xmlns="http://www.w3.org/2000/svg">
<path d="M27.0824 17.7087H18.7489C14.7217 17.7087 11.457 14.444 11.457 10.4168C11.457 6.38966 14.7217 3.125 18.7489 3.125H27.0824V17.7087Z" fill="white"/>
<path d="M26.0407 32.2919H18.7489C14.7217 32.2919 11.457 29.0273 11.457 25.0001C11.457 20.9729 14.7217 17.7083 18.7489 17.7083H26.0407V32.2919Z" fill="white"/>
<path d="M18.7489 46.8752C14.7217 46.8752 11.457 43.6105 11.457 39.5833C11.457 35.5562 14.7217 32.2915 18.7489 32.2915H26.0407V39.5833C26.0407 43.6105 22.7761 46.8752 18.7489 46.8752Z" fill="white"/>
<path d="M33.3348 17.7087H26.043V3.125H33.3348C37.362 3.125 40.6267 6.38966 40.6267 10.4168C40.6267 14.444 37.362 17.7087 33.3348 17.7087Z" fill="white"/>
<path d="M33.3348 32.2919C37.362 32.2919 40.6267 29.0273 40.6267 25.0001C40.6267 20.9729 37.362 17.7083 33.3348 17.7083C29.3076 17.7083 26.043 20.9729 26.043 25.0001C26.043 29.0273 29.3076 32.2919 33.3348 32.2919Z" fill="white"/>
</svg>
