<svg width="48" height="48" viewBox="0 0 48 48" fill="none" xmlns="http://www.w3.org/2000/svg">
<path d="M25.5996 18.4002H19.1996C16.1068 18.4002 13.5996 15.893 13.5996 12.8002C13.5996 9.70739 16.1068 7.2002 19.1996 7.2002H25.5996V18.4002Z" fill="#E64A19"/>
<path d="M24.7996 29.6004H19.1996C16.1068 29.6004 13.5996 27.0932 13.5996 24.0004C13.5996 20.9076 16.1068 18.4004 19.1996 18.4004H24.7996V29.6004Z" fill="#7C4DFF"/>
<path d="M19.1996 40.8006C16.1068 40.8006 13.5996 38.2934 13.5996 35.2006C13.5996 32.1078 16.1068 29.6006 19.1996 29.6006H24.7996V35.2006C24.7996 38.2934 22.2924 40.8006 19.1996 40.8006Z" fill="#66BB6A"/>
<path d="M30.3988 18.4002H24.7988V7.2002H30.3988C33.4916 7.2002 35.9988 9.70739 35.9988 12.8002C35.9988 15.893 33.4916 18.4002 30.3988 18.4002Z" fill="#FF7043"/>
<path d="M30.3988 29.6004C33.4916 29.6004 35.9988 27.0932 35.9988 24.0004C35.9988 20.9076 33.4916 18.4004 30.3988 18.4004C27.306 18.4004 24.7988 20.9076 24.7988 24.0004C24.7988 27.0932 27.306 29.6004 30.3988 29.6004Z" fill="#29B6F6"/>
</svg>
