<svg width="30" height="30" viewBox="0 0 30 30" fill="none" xmlns="http://www.w3.org/2000/svg">
<path d="M7.08203 6.6665C5.70328 6.6665 4.58203 7.78775 4.58203 9.1665V19.1665C4.58203 20.5453 5.70328 21.6665 7.08203 21.6665H22.9154C24.2941 21.6665 25.4154 20.5453 25.4154 19.1665V9.1665C25.4154 7.78775 24.2941 6.6665 22.9154 6.6665H7.08203ZM9.16536 10.8332H11.2487C11.7091 10.8332 12.082 11.2061 12.082 11.6665V16.6665C12.082 17.1269 11.7091 17.4998 11.2487 17.4998H9.16536C8.70495 17.4998 8.33203 17.1269 8.33203 16.6665V11.6665C8.33203 11.2061 8.70495 10.8332 9.16536 10.8332ZM14.582 10.8332H20.832C21.2924 10.8332 21.6654 11.2061 21.6654 11.6665V16.6665C21.6654 17.1269 21.2924 17.4998 20.832 17.4998H14.582C14.1216 17.4998 13.7487 17.1269 13.7487 16.6665V11.6665C13.7487 11.2061 14.1216 10.8332 14.582 10.8332ZM14.9987 13.7498C14.7687 13.7498 14.582 13.9365 14.582 14.1665C14.582 14.3965 14.7687 14.5832 14.9987 14.5832C15.2287 14.5832 15.4154 14.3965 15.4154 14.1665C15.4154 13.9365 15.2287 13.7498 14.9987 13.7498ZM10.207 15.8332C9.97703 15.8332 9.79036 16.0198 9.79036 16.2498C9.79036 16.4798 9.97703 16.6665 10.207 16.6665C10.437 16.6665 10.6237 16.4798 10.6237 16.2498C10.6237 16.0198 10.437 15.8332 10.207 15.8332ZM12.082 22.9165V23.7498C11.3916 23.7498 10.832 24.3094 10.832 24.9998C10.832 25.6903 11.3916 26.2498 12.082 26.2498H17.9154C18.6058 26.2498 19.1654 25.6903 19.1654 24.9998C19.1654 24.3094 18.6058 23.7498 17.9154 23.7498V22.9165H12.082Z" fill="#0D0D0D"/>
</svg>
