<svg width="32" height="32" viewBox="0 0 32 32" fill="none" xmlns="http://www.w3.org/2000/svg">
<path d="M12.9069 14.2318V18.653H8.92736C8.19866 18.653 7.60156 19.2494 7.60156 19.9788V23.0742C7.60156 23.8036 8.19866 24.4 8.92736 24.4H18.6546V12.9053H14.2334C13.504 12.9053 12.9069 13.5024 12.9069 14.2318Z" fill="#FFC107"/>
<path d="M12.8208 18.6533H8.92736C8.19866 18.6533 7.60156 19.2497 7.60156 19.9791V23.0745C7.60156 23.8039 8.19866 24.4003 8.92736 24.4003H12.8208V18.6533Z" fill="#DEA806"/>
<path d="M23.0517 7.6001H20.0123C19.2717 7.6001 18.6641 8.2084 18.6641 8.9483V24.4001H23.0524C23.7916 24.4001 24.3999 23.7918 24.3999 23.0519V8.9483C24.3999 8.2084 23.7916 7.6001 23.0517 7.6001Z" fill="#F57C00"/>
<path d="M21.5271 7.6001H20.0123C19.2717 7.6001 18.6641 8.2084 18.6641 8.9483V12.9166L21.5271 15.7845V7.6001Z" fill="#D56C00"/>
</svg>
