<svg width="50" height="50" viewBox="0 0 50 50" fill="none" xmlns="http://www.w3.org/2000/svg">
<path d="M42.9472 21.4156H41.4728V21.3397H24.9992V28.6612H35.3437C33.8345 32.9233 29.7793 35.9828 24.9992 35.9828C18.9342 35.9828 14.0169 31.0655 14.0169 25.0005C14.0169 18.9355 18.9342 14.0181 24.9992 14.0181C27.7988 14.0181 30.3458 15.0742 32.2851 16.7994L37.4624 11.6221C34.1933 8.57543 29.8205 6.69653 24.9992 6.69653C14.8909 6.69653 6.69531 14.8921 6.69531 25.0005C6.69531 35.1088 14.8909 43.3044 24.9992 43.3044C35.1076 43.3044 43.3032 35.1088 43.3032 25.0005C43.3032 23.7732 43.1769 22.5752 42.9472 21.4156Z" fill="white"/>
<path d="M8.80859 16.4807L14.8223 20.891C16.4496 16.8623 20.3904 14.0179 25.0021 14.0179C27.8017 14.0179 30.3487 15.074 32.288 16.7991L37.4652 11.6219C34.1961 8.57519 29.8233 6.69629 25.0021 6.69629C17.9715 6.69629 11.8745 10.6655 8.80859 16.4807Z" fill="white"/>
<path d="M24.9982 43.3042C29.7261 43.3042 34.022 41.4948 37.2701 38.5525L31.605 33.7587C29.7673 35.1507 27.483 35.9826 24.9982 35.9826C20.2373 35.9826 16.1949 32.9469 14.672 28.7104L8.70312 33.3093C11.7324 39.237 17.8844 43.3042 24.9982 43.3042Z" fill="white"/>
<path d="M42.9478 21.4156L42.9332 21.3396H41.4735H25V28.6611H35.3444C34.6196 30.7084 33.3026 32.4738 31.604 33.7597C31.6049 33.7588 31.6059 33.7588 31.6068 33.7578L37.2718 38.5516C36.871 38.9159 43.3039 34.1523 43.3039 25.0004C43.3039 23.7731 43.1776 22.5751 42.9478 21.4156Z" fill="white"/>
</svg>
