<svg width="48" height="48" viewBox="0 0 48 48" fill="none" xmlns="http://www.w3.org/2000/svg">
<path d="M40.6688 20.6708H39.2995V20.6003H23.9997V27.4002H33.6071C32.2055 31.3586 28.4392 34.2001 23.9997 34.2001C18.3669 34.2001 13.7999 29.6331 13.7999 24.0002C13.7999 18.3674 18.3669 13.8004 23.9997 13.8004C26.5998 13.8004 28.9654 14.7813 30.7665 16.3835L35.5748 11.5751C32.5387 8.74551 28.4775 7.00049 23.9997 7.00049C14.6116 7.00049 7 14.6121 7 24.0002C7 33.3883 14.6116 41 23.9997 41C33.3878 41 40.9995 33.3883 40.9995 24.0002C40.9995 22.8604 40.8822 21.7478 40.6688 20.6708Z" fill="#FFC107"/>
<path d="M8.95898 16.0877L14.5442 20.1838C16.0555 16.4421 19.7156 13.8004 23.9986 13.8004C26.5988 13.8004 28.9643 14.7813 30.7654 16.3835L35.5738 11.5751C32.5376 8.74551 28.4764 7.00049 23.9986 7.00049C17.469 7.00049 11.8064 10.6869 8.95898 16.0877Z" fill="#FF3D00"/>
<path d="M23.9992 41.0002C28.3903 41.0002 32.3801 39.3197 35.3967 36.587L30.1353 32.1348C28.4285 33.4276 26.307 34.2003 23.9992 34.2003C19.5776 34.2003 15.8232 31.3809 14.4088 27.4463L8.86523 31.7175C11.6787 37.2228 17.3923 41.0002 23.9992 41.0002Z" fill="#4CAF50"/>
<path d="M40.6691 20.6706H39.2998V20.6001H24V27.4H33.6074C32.9342 29.3014 31.7111 30.941 30.1335 32.1353C30.1344 32.1344 30.1352 32.1344 30.1361 32.1336L35.3975 36.5858C35.0252 36.9241 40.9997 32.4999 40.9997 24C40.9997 22.8602 40.8824 21.7476 40.6691 20.6706Z" fill="#1976D2"/>
</svg>
