<svg width="32" height="32" viewBox="0 0 32 32" fill="none" xmlns="http://www.w3.org/2000/svg">
<path d="M23.8444 14.4332H23.2V14.4H16V17.6H20.5212C19.8616 19.4628 18.0892 20.8 16 20.8C13.3492 20.8 11.2 18.6508 11.2 16C11.2 13.3492 13.3492 11.2 16 11.2C17.2236 11.2 18.3368 11.6616 19.1844 12.4156L21.4472 10.1528C20.0184 8.8212 18.1072 8 16 8C11.582 8 8 11.582 8 16C8 20.418 11.582 24 16 24C20.418 24 24 20.418 24 16C24 15.4636 23.9448 14.94 23.8444 14.4332Z" fill="#FBC02D"/>
<path d="M8.92188 12.2764L11.5503 14.204C12.2615 12.4432 13.9839 11.2 15.9995 11.2C17.2231 11.2 18.3363 11.6616 19.1839 12.4156L21.4467 10.1528C20.0179 8.8212 18.1067 8 15.9995 8C12.9267 8 10.2619 9.7348 8.92188 12.2764Z" fill="#E53935"/>
<path d="M16.0009 24C18.0673 24 19.9449 23.2092 21.3645 21.9232L18.8885 19.828C18.0853 20.4364 17.0869 20.8 16.0009 20.8C13.9201 20.8 12.1533 19.4732 11.4877 17.6216L8.87891 19.6316C10.2029 22.2224 12.8917 24 16.0009 24Z" fill="#4CAF50"/>
<path d="M23.8444 14.4331L23.838 14.3999H23.2H16V17.5999H20.5212C20.2044 18.4947 19.6288 19.2663 18.8864 19.8283C18.8868 19.8279 18.8872 19.8279 18.8876 19.8275L21.3636 21.9227C21.1884 22.0819 24 19.9999 24 15.9999C24 15.4635 23.9448 14.9399 23.8444 14.4331Z" fill="#1565C0"/>
</svg>
