<svg width="100" height="100" viewBox="0 0 100 100" fill="none" xmlns="http://www.w3.org/2000/svg">
<path d="M64.4043 15.6524C63.0949 15.5039 62.1604 16.887 62.7838 18.048L64.9719 22.1221L20.4132 45.6725C18.8866 46.4787 18.3039 48.3696 19.1101 49.8961C19.6726 50.9571 20.7562 51.5624 21.8781 51.5624C22.3687 51.5624 22.8712 51.4461 23.3368 51.1992L67.9291 27.6305L70.1782 31.8206C70.8017 32.9815 72.4743 32.9665 73.0743 31.7931L79.3304 19.5586C79.8508 18.5414 79.1953 17.3216 78.0609 17.1935L64.4043 15.6524ZM67.1875 43.7499C65.4625 43.7499 64.0625 45.1499 64.0625 46.8749V81.2499C64.0625 82.9749 65.4625 84.3749 67.1875 84.3749H79.6875C81.4125 84.3749 82.8125 82.9749 82.8125 81.2499V46.8749C82.8125 45.1499 81.4125 43.7499 79.6875 43.7499H67.1875ZM43.75 51.5624C42.025 51.5624 40.625 52.9624 40.625 54.6874V81.2499C40.625 82.9749 42.025 84.3749 43.75 84.3749H56.25C57.975 84.3749 59.375 82.9749 59.375 81.2499V54.6874C59.375 52.9624 57.975 51.5624 56.25 51.5624H43.75ZM20.3125 60.9374C18.5875 60.9374 17.1875 62.3374 17.1875 64.0624V81.2499C17.1875 82.9749 18.5875 84.3749 20.3125 84.3749H32.8125C34.5375 84.3749 35.9375 82.9749 35.9375 81.2499V64.0624C35.9375 62.3374 34.5375 60.9374 32.8125 60.9374H20.3125Z" fill="#0D0D0D"/>
</svg>
