<svg width="100" height="100" viewBox="0 0 100 100" fill="none" xmlns="http://www.w3.org/2000/svg">
<path d="M78.125 25V75C78.125 80.1719 73.9219 84.375 68.75 84.375H31.25C26.0781 84.375 21.875 80.1719 21.875 75V25C21.875 19.8281 26.0781 15.625 31.25 15.625H39.0625V18.75C39.0625 21.3437 41.1563 23.4375 43.75 23.4375H56.25C58.8437 23.4375 60.9375 21.3437 60.9375 18.75V15.625H68.75C73.9219 15.625 78.125 19.8281 78.125 25ZM48.4375 61.7188C48.4375 60.4234 47.3875 59.375 46.0938 59.375H35.1562C33.8625 59.375 32.8125 60.4234 32.8125 61.7188C32.8125 63.0141 33.8625 64.0625 35.1562 64.0625H46.0938C47.3875 64.0625 48.4375 63.0141 48.4375 61.7188ZM61.8141 64.9391L66.5016 60.2516C67.4172 59.3375 67.4172 57.8516 66.5016 56.9375C65.5859 56.0219 64.1031 56.0219 63.1875 56.9375L60.1562 59.9672L58.6891 58.5C57.7734 57.5844 56.2906 57.5844 55.375 58.5C54.4594 59.4141 54.4594 60.9 55.375 61.8141L58.5 64.9391C58.9562 65.3969 59.5562 65.625 60.1562 65.625C60.7563 65.625 61.3563 65.3969 61.8141 64.9391ZM48.4375 44.5312C48.4375 43.2359 47.3875 42.1875 46.0938 42.1875H35.1562C33.8625 42.1875 32.8125 43.2359 32.8125 44.5312C32.8125 45.8266 33.8625 46.875 35.1562 46.875H46.0938C47.3875 46.875 48.4375 45.8266 48.4375 44.5312ZM61.8141 47.7516L66.5016 43.0641C67.4172 42.15 67.4172 40.6641 66.5016 39.75C65.5859 38.8344 64.1031 38.8344 63.1875 39.75L60.1562 42.7797L58.6891 41.3125C57.7734 40.3969 56.2906 40.3969 55.375 41.3125C54.4594 42.2266 54.4594 43.7125 55.375 44.6266L58.5 47.7516C58.9562 48.2094 59.5562 48.4375 60.1562 48.4375C60.7563 48.4375 61.3563 48.2094 61.8141 47.7516Z" fill="#0D0D0D"/>
</svg>
