<svg width="30" height="30" viewBox="0 0 30 30" fill="none" xmlns="http://www.w3.org/2000/svg">
<path d="M14.7311 7.6665C13.2268 7.6665 12 8.94002 12 10.5064V11.3332H26V10.5064C26 8.94002 24.7729 7.6665 23.2683 7.6665H14.7311ZM9.43881 11.3332C8.69414 11.3332 7.99294 11.6797 7.54428 12.2694L4.47982 16.2961C4.16848 16.7051 4 17.203 4 17.7153V20.397C4 21.835 5.063 23.0628 6.5 23.2525C6.97767 23.3185 8.66662 23.3334 9.09962 23.2401C9.31795 23.1524 12.3975 21.8732 14.1621 21.1398C14.8508 20.8535 15.1769 19.9562 14.9642 19.3866C14.6915 18.6566 14.0332 18.3031 13.3255 18.4458L10.6667 18.9998V11.3332L9.43881 11.3332ZM12 12.6665V17.4067C12 17.4067 13.4538 17.148 13.6354 17.1307C15.0001 16.9997 15.8588 17.8841 16.2311 19.0044C16.3778 19.4454 16.4019 19.9005 16.3255 20.3332H23.3334C24.8377 20.3332 26 18.8995 26 17.3332V12.6665H12Z" fill="#0D0D0D"/>
</svg>
