<svg width="30" height="30" viewBox="0 0 30 30" fill="none" xmlns="http://www.w3.org/2000/svg">
<path d="M26.25 17.3438C26.25 19.1002 25.8558 20.783 25.0786 22.3458C24.6 23.3086 23.6348 23.9062 22.5591 23.9062H7.44094C6.36562 23.9062 5.4 23.3086 4.92141 22.3458C4.14422 20.783 3.75 19.1002 3.75 17.3438C3.75 11.1403 8.79703 6.09375 15 6.09375C21.203 6.09375 26.25 11.1403 26.25 17.3438ZM7.30266 19.4063C7.47 20.0316 8.11266 20.4023 8.73797 20.235C9.36328 20.0677 9.73406 19.425 9.56672 18.7997C9.39938 18.1744 8.75672 17.8036 8.13141 17.9709C7.50609 18.1383 7.13531 18.7809 7.30266 19.4063ZM7.51172 14.6184C7.29047 15.2264 7.60406 15.8991 8.21203 16.1203C8.82 16.3416 9.49266 16.028 9.71391 15.42C9.93516 14.812 9.62156 14.1394 9.01359 13.9181C8.40563 13.6969 7.73297 14.01 7.51172 14.6184ZM10.4292 10.8159C9.89906 11.1872 9.77016 11.918 10.1414 12.4481C10.5127 12.9783 11.2434 13.1072 11.7736 12.7359C12.3038 12.3647 12.4327 11.6339 12.0614 11.1037C11.6902 10.5736 10.9594 10.4447 10.4292 10.8159ZM15 9.375C14.3527 9.375 13.8281 9.89953 13.8281 10.5469C13.8281 11.1942 14.3527 11.7188 15 11.7188C15.6473 11.7188 16.1719 11.1942 16.1719 10.5469C16.1719 9.89953 15.6473 9.375 15 9.375ZM19.3017 11.2003C19.0823 11.0466 18.7828 11.0803 18.6033 11.2791L13.9425 16.4259C13.7283 16.673 13.5938 16.9913 13.5938 17.3438C13.5938 18.1205 14.2233 18.75 15 18.75C15.5288 18.75 15.9839 18.4547 16.2239 18.0234L19.4667 11.8833C19.5919 11.6466 19.5211 11.3536 19.3017 11.2003ZM22.4883 14.6184C22.267 14.0105 21.5944 13.6969 20.9864 13.9181C20.3784 14.1394 20.0648 14.812 20.2861 15.42C20.5073 16.028 21.18 16.3416 21.788 16.1203C22.3959 15.8991 22.7095 15.2264 22.4883 14.6184ZM22.6973 19.4063C22.8647 18.7809 22.4939 18.1383 21.8686 17.9709C21.2433 17.8036 20.6006 18.1744 20.4333 18.7997C20.2659 19.425 20.6367 20.0677 21.262 20.235C21.8873 20.4023 22.5295 20.0316 22.6973 19.4063Z" fill="white"/>
</svg>
