<svg width="30" height="30" viewBox="0 0 30 30" fill="none" xmlns="http://www.w3.org/2000/svg">
<path d="M15.7821 3.75146C15.0659 3.75146 14.3501 4.02434 13.8053 4.56934L12.0687 6.30518C10.9791 7.39517 10.9795 9.16944 12.0695 10.2594L20.6567 18.8459C21.1222 19.3117 21.7377 19.5604 22.3706 19.5604C22.6289 19.5604 22.8899 19.5192 23.1445 19.4342C24.0245 19.1413 24.6527 18.3893 24.7835 17.4714L25.2384 14.2837C25.4134 13.0587 24.9957 11.805 24.1203 10.93L23.3618 10.1715C23.7508 9.53035 23.6724 8.68526 23.1185 8.13135L21.4518 6.46468C20.8983 5.91049 20.0528 5.83257 19.4116 6.22217L17.7588 4.56934C17.214 4.02434 16.4982 3.75146 15.7821 3.75146ZM11.7065 13.2054L5.96191 18.95C5.3415 19.57 5 20.3947 5 21.2718C5 22.1485 5.34108 22.9732 5.96191 23.5936L6.40625 24.0379C7.02625 24.6579 7.85094 24.9998 8.72803 24.9998C9.60511 24.9998 10.4294 24.6583 11.0498 24.0379L16.7944 18.2941L11.7065 13.2054Z" fill="#0D0D0D"/>
</svg>
