<svg width="32" height="32" viewBox="0 0 32 32" fill="none" xmlns="http://www.w3.org/2000/svg">
<path d="M8.80078 10.3998C8.80078 9.5162 9.51718 8.7998 10.4008 8.7998H21.6008C22.4844 8.7998 23.2008 9.5162 23.2008 10.3998V21.5998C23.2008 22.4834 22.4844 23.1998 21.6008 23.1998H10.4008C9.51718 23.1998 8.80078 22.4834 8.80078 21.5998V10.3998Z" fill="#03A9F4"/>
<path d="M14.4063 14.0693H13.6055V15.8429H14.3947C14.6135 15.8429 14.7827 15.7713 14.9027 15.6281C15.0227 15.4849 15.0823 15.2765 15.0823 15.0029C15.0823 14.7189 15.0211 14.4933 14.8987 14.3253C14.7763 14.1573 14.6119 14.0721 14.4063 14.0693Z" fill="#020F16"/>
<path d="M10 10V22H22V10H10ZM15.746 16.3156C15.4156 16.6388 14.9572 16.8 14.3712 16.8H13.6056V18.8H12.4572V13.1124H14.3948C14.9572 13.1124 15.406 13.2872 15.7404 13.636C16.0748 13.9848 16.2424 14.438 16.2424 14.9952C16.2424 15.5524 16.0768 15.9924 15.746 16.3156ZM19.4728 18.5344C19.1892 18.7636 18.8164 18.878 18.3556 18.878C18.0456 18.878 17.772 18.8176 17.5352 18.6964C17.2984 18.5752 17.1124 18.4064 16.9784 18.1904C16.8444 17.9744 16.7772 17.7412 16.7772 17.4912H17.828C17.8336 17.6836 17.878 17.8284 17.9628 17.9248C18.0476 18.0212 18.186 18.0692 18.3788 18.0692C18.6756 18.0692 18.824 17.9352 18.824 17.6668C18.824 17.5732 18.7792 17.4864 18.6892 17.4072C18.5992 17.328 18.4 17.2208 18.09 17.0852C17.6344 16.9004 17.3212 16.7092 17.1504 16.5108C16.9796 16.3124 16.8944 16.0668 16.8944 15.7724C16.8944 15.4024 17.028 15.0972 17.2948 14.8564C17.5616 14.6156 17.9156 14.4952 18.3552 14.4952C18.8184 14.4952 19.1896 14.6152 19.4684 14.8544C19.7472 15.0936 19.8864 15.4156 19.8864 15.8192H18.7808C18.7808 15.4756 18.638 15.3036 18.3512 15.3036C18.234 15.3036 18.138 15.34 18.062 15.4128C17.986 15.4856 17.9488 15.5876 17.9488 15.7176C17.9488 15.8112 17.9904 15.894 18.074 15.9656C18.1576 16.0372 18.3536 16.1396 18.664 16.2724C19.1148 16.4392 19.4328 16.6248 19.6192 16.8292C19.8056 17.0336 19.8984 17.2988 19.8984 17.624C19.8984 18.002 19.7564 18.3052 19.4728 18.5344Z" fill="#020F16"/>
</svg>
