<svg width="30" height="30" viewBox="0 0 30 30" fill="none" xmlns="http://www.w3.org/2000/svg">
<path d="M18.3285 4.20745C17.959 4.16079 17.6893 4.54842 17.8614 4.87884L18.4002 5.91481L5.6666 12.645C5.05618 12.9675 4.82245 13.7232 5.14495 14.3336C5.36912 14.7578 5.80297 15.0001 6.25172 15.0001C6.44881 15.0001 6.64776 14.954 6.83359 14.8552L19.5533 8.13161L20.123 9.22617C20.2951 9.55659 20.7675 9.5582 20.9417 9.22861L22.9534 5.42083C23.1042 5.135 22.923 4.78661 22.6026 4.74619L18.3285 4.20745ZM20.0001 12.9168C19.3097 12.9168 18.7501 13.4763 18.7501 14.1668V23.3334C18.7501 24.0238 19.3097 24.5834 20.0001 24.5834H23.3334C24.0238 24.5834 24.5834 24.0238 24.5834 23.3334V14.1668C24.5834 13.4763 24.0238 12.9168 23.3334 12.9168H20.0001ZM13.3334 15.0001C12.643 15.0001 12.0834 15.5597 12.0834 16.2501V23.3334C12.0834 24.0238 12.643 24.5834 13.3334 24.5834H16.6668C17.3572 24.5834 17.9168 24.0238 17.9168 23.3334V16.2501C17.9168 15.5597 17.3572 15.0001 16.6668 15.0001H13.3334ZM6.66676 17.5001C5.97634 17.5001 5.41676 18.0597 5.41676 18.7501V23.3334C5.41676 24.0238 5.97634 24.5834 6.66676 24.5834H10.0001C10.6905 24.5834 11.2501 24.0238 11.2501 23.3334V18.7501C11.2501 18.0597 10.6905 17.5001 10.0001 17.5001H6.66676Z" fill="#0D0D0D"/>
</svg>
