<svg width="48" height="48" viewBox="0 0 48 48" fill="none" xmlns="http://www.w3.org/2000/svg">
<path d="M36.8085 12.391C36.7863 12.1905 36.6046 12.1013 36.4692 12.1013C36.3339 12.1013 33.3663 11.879 33.3663 11.879C33.3663 11.879 31.3054 9.85355 31.056 9.6531C30.8298 9.4308 30.3987 9.4973 30.2179 9.54195C30.1957 9.54195 29.7646 9.6759 29.0628 9.8982C28.361 7.9165 27.1604 6.1134 25.0087 6.1134H24.8047C24.2141 5.35625 23.4446 5 22.8105 5C17.8274 5 15.4263 11.1218 14.6791 14.2388C12.7313 14.8401 11.3489 15.2401 11.1904 15.3075C10.1029 15.641 10.0807 15.6637 9.94441 16.665C9.83131 17.4222 7 38.9483 7 38.9483L29.0396 43L40.9999 40.4625C41.0221 40.4179 36.8317 12.5914 36.8085 12.391ZM27.839 10.2088C27.2957 10.3646 26.6384 10.5651 25.9821 10.7874V10.3874C25.9821 9.1857 25.8235 8.20625 25.5287 7.4263C26.6607 7.56025 27.3634 8.7848 27.839 10.2088ZM24.1464 7.6714C24.4412 8.42855 24.6452 9.4973 24.6452 10.966V11.1883C23.4224 11.5664 22.1309 11.9454 20.7941 12.3682C21.5413 9.5638 22.969 8.18345 24.1464 7.6714ZM22.6964 6.29105C22.9226 6.29105 23.1498 6.38035 23.3306 6.51335C21.7221 7.2477 20.0237 9.09545 19.3209 12.8356C18.2566 13.1691 17.2368 13.4588 16.2634 13.7704C17.0792 10.9214 19.1179 6.29105 22.6964 6.29105Z" fill="#7CB342"/>
<path d="M36.864 11.428C36.723 11.428 33.654 11.194 33.654 11.194C33.654 11.194 31.522 9.06196 31.264 8.85096C31.169 8.75696 31.052 8.70996 30.959 8.70996L29.248 44L41.621 41.329C41.621 41.329 37.286 11.991 37.262 11.78C37.168 11.569 37.004 11.475 36.864 11.428Z" fill="#558B2F"/>
<path d="M24.7924 18.5928L23.3174 23.0418C23.3174 23.0418 21.9804 22.3268 20.3904 22.3268C18.0164 22.3268 17.9014 23.8248 17.9014 24.1938C17.9014 26.2218 23.2024 27.0058 23.2024 31.7768C23.2024 35.5338 20.8284 37.9538 17.6244 37.9538C13.7524 37.9538 11.8164 35.5568 11.8164 35.5568L12.8534 32.1458C12.8534 32.1458 14.8814 33.8978 16.5874 33.8978C17.7164 33.8978 18.1774 33.0218 18.1774 32.3768C18.1774 29.7258 13.8444 29.6108 13.8444 25.2318C13.8444 21.5668 16.4724 18.0178 21.7964 18.0178C23.7774 17.9938 24.7924 18.5928 24.7924 18.5928Z" fill="white"/>
</svg>
