<svg width="50" height="50" viewBox="0 0 50 50" fill="none" xmlns="http://www.w3.org/2000/svg">
<path d="M37.9505 13.0274C37.928 12.8207 37.7438 12.7286 37.6066 12.7286C37.4694 12.7286 34.4616 12.4993 34.4616 12.4993C34.4616 12.4993 32.3728 10.4105 32.1201 10.2038C31.8908 9.97453 31.4538 10.0431 31.2706 10.0892C31.2481 10.0892 30.8111 10.2273 30.0998 10.4566C29.3886 8.41283 28.1717 6.55328 25.9908 6.55328H25.7841C25.1855 5.77243 24.4056 5.40503 23.7629 5.40503C18.7123 5.40503 16.2787 11.7185 15.5213 14.933C13.5472 15.5532 12.1461 15.9656 11.9854 16.0352C10.8832 16.3791 10.8607 16.4026 10.7226 17.4352C10.6079 18.2161 7.73828 40.416 7.73828 40.416L30.0763 44.5946L42.1986 41.9777C42.2212 41.9317 37.974 13.2341 37.9505 13.0274ZM28.8595 10.7769C28.3089 10.9376 27.6427 11.1443 26.9774 11.3736V10.9611C26.9774 9.72176 26.8167 8.71165 26.5179 7.90728C27.6652 8.04543 28.3775 9.30831 28.8595 10.7769ZM25.1169 8.16005C25.4157 8.94091 25.6224 10.0431 25.6224 11.5578V11.787C24.3831 12.177 23.0741 12.5679 21.7192 13.0039C22.4765 10.1117 23.9236 8.68813 25.1169 8.16005ZM23.6473 6.73649C23.8765 6.73649 24.1068 6.82859 24.29 6.96575C22.6597 7.72309 20.9383 9.62868 20.226 13.4859C19.1473 13.8298 18.1137 14.1286 17.1271 14.45C17.954 11.5117 20.0203 6.73649 23.6473 6.73649Z" fill="white"/>
<path d="M37.6062 12.6827C37.4681 12.6827 34.4613 12.4534 34.4613 12.4534C34.4613 12.4534 32.3725 10.3646 32.1197 10.1579C32.0266 10.0658 31.912 10.0198 31.8209 10.0198L30.1445 44.5948L42.2668 41.9779C42.2668 41.9779 38.0197 13.2343 37.9962 13.0276C37.9041 12.8208 37.7434 12.7288 37.6062 12.6827Z" fill="white"/>
<path d="M25.7755 19.7025L24.3304 24.0613C24.3304 24.0613 23.0205 23.3608 21.4627 23.3608C19.1369 23.3608 19.0242 24.8284 19.0242 25.19C19.0242 27.1769 24.2178 27.945 24.2178 32.6193C24.2178 36.3002 21.8919 38.6711 18.7528 38.6711C14.9593 38.6711 13.0625 36.3227 13.0625 36.3227L14.0785 32.9808C14.0785 32.9808 16.0654 34.6973 17.7368 34.6973C18.8429 34.6973 19.2946 33.8391 19.2946 33.2071C19.2946 30.6099 15.0494 30.4972 15.0494 26.2069C15.0494 22.6162 17.6241 19.1391 22.8403 19.1391C24.7811 19.1156 25.7755 19.7025 25.7755 19.7025Z" fill="#4F46E5"/>
</svg>
