<svg width="100" height="100" viewBox="0 0 100 100" fill="none" xmlns="http://www.w3.org/2000/svg">
<path d="M87.6713 27.2094C87.2297 26.8062 86.6729 26.5758 86.0777 26.5758C86.0393 26.5758 85.9817 26.595 85.9241 26.595L28.5929 30.2814C27.3833 30.3582 26.4233 31.395 26.4233 32.6046V87.8046C26.4233 88.4574 26.6921 89.0526 27.1529 89.4942C27.6329 89.9358 28.2473 90.1662 28.9001 90.1278L86.2313 86.4222C87.4601 86.3454 88.4009 85.3278 88.4009 84.099V28.9182C88.4009 28.2654 88.1513 27.651 87.6713 27.2094ZM75.1721 42.1662C74.0201 42.531 73.6553 42.5502 73.6553 42.5502V75.651C71.6969 76.707 70.0841 77.2062 68.3945 77.2062C66.3401 77.2062 65.1689 76.7454 63.5945 74.3262C60.2537 69.1614 49.3673 51.651 49.3673 51.651V73.635L53.6489 74.5374C53.6489 74.5374 53.5337 77.0334 49.7897 77.3214C46.5065 77.571 39.3449 77.9358 39.3449 77.9358C39.3449 77.0334 39.5369 75.7854 40.9577 75.4206C41.6297 75.2478 43.6457 74.7102 43.6457 74.7102V45.0462H39.3449C39.3449 43.0686 39.9209 41.5326 41.9945 41.379L53.1113 40.7454L67.9529 63.6318V43.2606L63.6521 42.8958C63.6521 41.1102 65.3801 40.0158 66.8585 39.8622L76.5353 39.3246C76.5353 40.5726 76.4777 41.7438 75.1721 42.1662ZM11.5625 18.3966L22.5833 29.4174V86.1342L12.7529 74.307C11.9657 73.1934 11.5625 71.907 11.5625 70.5438V18.3966ZM84.0233 22.947L28.2281 26.4606C26.3273 26.595 24.4841 25.8846 23.1401 24.5598L13.9817 15.3822L66.1865 11.7534C67.7417 11.619 69.2969 12.0798 70.5641 13.0206L84.0233 22.947Z" fill="black"/>
</svg>
