<svg width="30" height="30" viewBox="0 0 30 30" fill="none" xmlns="http://www.w3.org/2000/svg">
<path d="M25 12.9167V20.4167C25 22.2546 23.5046 23.75 21.6667 23.75H8.33333C6.49542 23.75 5 22.2546 5 20.4167V12.9167H25ZM13.75 20.4167V15.8333C13.75 15.3729 13.3771 15 12.9167 15H10C9.53958 15 9.16667 15.3729 9.16667 15.8333V20.4167C9.16667 20.8771 9.53958 21.25 10 21.25H12.9167C13.3771 21.25 13.75 20.8771 13.75 20.4167ZM19.1667 19.1667C19.1667 18.7067 18.7933 18.3333 18.3333 18.3333H16.6667C16.2067 18.3333 15.8333 18.7067 15.8333 19.1667C15.8333 19.6267 16.2067 20 16.6667 20H18.3333C18.7933 20 19.1667 19.6267 19.1667 19.1667ZM20.8333 16.6667C20.8333 16.2067 20.46 15.8333 20 15.8333H16.6667C16.2067 15.8333 15.8333 16.2067 15.8333 16.6667C15.8333 17.1267 16.2067 17.5 16.6667 17.5H20C20.46 17.5 20.8333 17.1267 20.8333 16.6667ZM21.6667 6.25C23.5046 6.25 25 7.74542 25 9.58333V11.25H5V9.58333C5 7.74542 6.49542 6.25 8.33333 6.25H21.6667ZM9.16667 9.58333C9.62667 9.58333 10 9.21042 10 8.75C10 8.28958 9.62667 7.91667 9.16667 7.91667C8.70667 7.91667 8.33333 8.28958 8.33333 8.75C8.33333 9.21042 8.70667 9.58333 9.16667 9.58333ZM11.6667 9.58333C12.1267 9.58333 12.5 9.21042 12.5 8.75C12.5 8.28958 12.1267 7.91667 11.6667 7.91667C11.2067 7.91667 10.8333 8.28958 10.8333 8.75C10.8333 9.21042 11.2067 9.58333 11.6667 9.58333ZM20.8333 9.58333C21.2933 9.58333 21.6667 9.21042 21.6667 8.75C21.6667 8.28958 21.2933 7.91667 20.8333 7.91667H14.5833C14.1233 7.91667 13.75 8.28958 13.75 8.75C13.75 9.21042 14.1233 9.58333 14.5833 9.58333H20.8333Z" fill="#0D0D0D"/>
</svg>
