<svg width="32" height="32" viewBox="0 0 32 32" fill="none" xmlns="http://www.w3.org/2000/svg">
<path d="M23.9997 10.8441V21.156C23.9997 21.664 23.6837 22.116 23.2077 22.284L19.6797 23.94L19.9997 19.6001V12.4001L19.6797 8.06006L23.2077 9.71606C23.6837 9.88406 23.9997 10.3361 23.9997 10.8441Z" fill="#29B6F6"/>
<path d="M9.99821 19.9582L19.9982 12.3998V8.54104C19.9982 8.06184 19.4054 7.83784 19.0882 8.19704L8.26141 18.0954C7.90141 18.4274 7.92181 19.0022 8.30421 19.3082C8.30421 19.3082 8.83381 19.801 9.02541 19.9378C9.31981 20.1478 9.70661 20.1718 9.99821 19.9582Z" fill="#0277BD"/>
<path d="M9.99821 12.0417L19.9982 19.6001V23.4589C19.9982 23.9381 19.4054 24.1621 19.0882 23.8029L8.26141 13.9045C7.90141 13.5725 7.92181 12.9977 8.30421 12.6917C8.30421 12.6917 8.83381 12.1989 9.02541 12.0621C9.31981 11.8521 9.70661 11.8281 9.99821 12.0417Z" fill="#0288D1"/>
</svg>
