<svg width="48" height="48" viewBox="0 0 48 48" fill="none" xmlns="http://www.w3.org/2000/svg">
<path d="M23.9992 41.8002C33.8299 41.8002 41.7992 33.8308 41.7992 24.0002C41.7992 14.1695 33.8299 6.2002 23.9992 6.2002C14.1685 6.2002 6.19922 14.1695 6.19922 24.0002C6.19922 33.8308 14.1685 41.8002 23.9992 41.8002Z" fill="#1976D2"/>
<path d="M29.429 21.713C29.429 21.713 27.8893 26.5368 27.7736 26.9462C27.7291 26.5368 26.6077 17.8682 26.6077 17.8682C23.9822 17.8682 22.5849 19.7283 21.8462 21.713C21.8462 21.713 19.9772 26.5546 19.8259 26.964C19.817 26.5813 19.5411 21.7664 19.5411 21.7664C19.3809 19.3456 17.1737 17.8771 15.3848 17.8771L17.5386 31.0135C20.2887 31.0046 21.7661 29.1445 22.5404 27.1687C22.5404 27.1687 24.1869 22.8967 24.2581 22.7009C24.2759 22.8878 25.4418 31.0135 25.4418 31.0135C28.1919 31.0135 29.6782 29.2691 30.4792 27.3645L34.324 17.8682C31.6006 17.8682 30.1677 19.7283 29.429 21.713Z" fill="white"/>
</svg>
