<svg width="50" height="50" viewBox="0 0 50 50" fill="none" xmlns="http://www.w3.org/2000/svg">
<path d="M24.9996 43.9527C35.4669 43.9527 43.9523 35.4673 43.9523 25.0001C43.9523 14.5328 35.4669 6.04736 24.9996 6.04736C14.5323 6.04736 6.04688 14.5328 6.04688 25.0001C6.04688 35.4673 14.5323 43.9527 24.9996 43.9527Z" fill="white"/>
<path d="M30.7778 22.5647C30.7778 22.5647 29.1384 27.7009 29.0152 28.1368C28.9679 27.7009 27.7738 18.4709 27.7738 18.4709C24.9783 18.4709 23.4906 20.4515 22.704 22.5647C22.704 22.5647 20.714 27.7198 20.5529 28.1557C20.5434 27.7483 20.2497 22.6216 20.2497 22.6216C20.0791 20.044 17.729 18.4804 15.8242 18.4804L18.1175 32.4675C21.0457 32.458 22.6187 30.4774 23.4432 28.3737C23.4432 28.3737 25.1963 23.8251 25.2721 23.6166C25.2911 23.8156 26.5324 32.4675 26.5324 32.4675C29.4606 32.4675 31.0432 30.6101 31.896 28.5822L35.9898 18.4709C33.0901 18.4709 31.5644 20.4515 30.7778 22.5647Z" fill="#4F46E5"/>
</svg>
