<svg width="32" height="32" viewBox="0 0 32 32" fill="none" xmlns="http://www.w3.org/2000/svg">
<path d="M16 24C20.4183 24 24 20.4183 24 16C24 11.5817 20.4183 8 16 8C11.5817 8 8 11.5817 8 16C8 20.4183 11.5817 24 16 24Z" fill="#1976D2"/>
<path d="M18.4409 14.9721C18.4409 14.9721 17.7489 17.1401 17.6969 17.3241C17.6769 17.1401 17.1729 13.2441 17.1729 13.2441C15.9929 13.2441 15.3649 14.0801 15.0329 14.9721C15.0329 14.9721 14.1929 17.1481 14.1249 17.3321C14.1209 17.1601 13.9969 14.9961 13.9969 14.9961C13.9249 13.9081 12.9329 13.2481 12.1289 13.2481L13.0969 19.1521C14.3329 19.1481 14.9969 18.3121 15.3449 17.4241C15.3449 17.4241 16.0849 15.5041 16.1169 15.4161C16.1249 15.5001 16.6489 19.1521 16.6489 19.1521C17.8849 19.1521 18.5529 18.3681 18.9129 17.5121L20.6409 13.2441C19.4169 13.2441 18.7729 14.0801 18.4409 14.9721Z" fill="white"/>
</svg>
