<svg width="50" height="50" viewBox="0 0 50 50" fill="none" xmlns="http://www.w3.org/2000/svg">
<path d="M16.9368 13.2293L9.72119 20.4776C9.55869 20.6409 9.27388 20.6094 9.17241 20.4025C9.14458 20.3457 9.12891 20.2818 9.12891 20.2143V3.64981C9.12891 3.41334 9.32056 3.22168 9.55704 3.22168H16.8966C17.1331 3.22168 17.3247 3.41334 17.3247 3.64981V12.4909C17.3247 12.7273 17.1163 13.0896 16.9367 13.2293H16.9368Z" fill="black"/>
<path d="M16.9368 37.4867L9.72119 30.2384C9.55869 30.0751 9.27388 30.1066 9.17241 30.3135C9.14458 30.3704 9.12891 30.4342 9.12891 30.5017V47.0662C9.12891 47.3027 9.32056 47.4943 9.55704 47.4943H16.8966C17.1331 47.4943 17.3247 47.3027 17.3247 47.0662V38.2252C17.3247 37.9887 17.1163 37.6264 16.9367 37.4867H16.9368Z" fill="black"/>
<path d="M20.5708 25.7139L9.84456 25.8887C9.75141 25.872 9.44897 25.602 9.43209 25.4829C9.40546 25.2953 9.60841 25.13 9.63164 25.0904L30.3167 4.35204C31.3145 3.40296 31.9467 3.26971 32.1832 3.26686L42.0176 3.22171C42.2203 3.2193 42.3918 3.35803 42.4385 3.54662C42.4528 3.60415 42.4307 3.66475 42.3886 3.7065L20.9499 24.9707C20.7148 25.1413 20.7487 25.572 20.5708 25.7139Z" fill="black"/>
<path d="M20.5709 24.9949L9.8868 24.9814C9.79366 24.9981 9.50765 25.3244 9.49078 25.4436C9.46415 25.6312 9.65898 25.7482 9.68221 25.7879L30.3169 46.3568C31.3147 47.3058 31.9469 47.4391 32.1834 47.4419L42.0178 47.4871C42.2205 47.4895 42.392 47.3508 42.4387 47.1622C42.4529 47.1047 42.4309 47.0441 42.3888 47.0023L20.9501 25.7381C20.715 25.5675 20.7489 25.1368 20.571 24.9949H20.5709Z" fill="black"/>
</svg>
